<svg version="1.0" xmlns="http://www.w3.org/2000/svg" preserveAspectRatio="xMidYMid meet" transform="rotate(0) scale(1, 1)" viewBox="226.8 355.5 571.08 305.28">

<g transform="translate(0.000000,1024.000000) scale(0.100000,-0.100000)" fill="#e0c570" stroke="none">
<path d="M6195 6616 c-4 -37 -5 -112 -2 -165 16 -290 157 -517 407 -656 58&#xA;-32 121 -75 141 -96 98 -101 86 -265 -27 -374 -92 -88 -222 -125 -374 -106&#xA;-215 27 -411 163 -623 430 -263 333 -450 492 -742 632 -159 76 -261 111 -452&#xA;153 -460 102 -1070 111 -1604 25 -307 -49 -454 -103 -544 -201 -67 -72 -96&#xA;-144 -103 -253 l-4 -81 202 4 c216 5 381 -7 575 -40 110 -18 355 -76 398 -93&#xA;12 -5 17 -2 17 9 0 9 12 40 26 69 89 178 244 277 433 277 142 -1 250 -44 345&#xA;-138 183 -181 190 -465 15 -656 -97 -107 -209 -156 -353 -156 -260 0 -456 177&#xA;-482 435 l-7 63 -111 31 c-281 78 -488 105 -798 106 -149 0 -241 -4 -247 -10&#xA;-13 -13 25 -207 63 -320 92 -272 286 -576 516 -806 158 -159 385 -330 541&#xA;-410 43 -21 58 -35 64 -56 3 -15 22 -61 41 -101 79 -173 249 -346 422 -432 55&#xA;-27 192 -74 198 -67 2 2 -6 45 -16 97 -11 52 -20 134 -20 182 l0 87 43 -15&#xA;c177 -63 612 -110 885 -96 l93 4 102 -50 c56 -29 147 -63 202 -78 90 -24 118&#xA;-27 282 -28 201 -1 229 6 179 45 -34 27 -166 176 -166 188 0 5 66 30 146 56&#xA;176 56 434 183 571 281 376 270 598 584 732 1038 17 59 40 125 50 145 31 60&#xA;105 119 209 168 222 103 223 103 322 203 74 73 105 114 137 175 67 129 94 237&#xA;100 393 3 72 2 132 -2 132 -4 0 -34 -24 -66 -54 -77 -72 -181 -123 -289 -142&#xA;-303 -54 -412 -109 -516 -259 -37 -54 -39 -56 -48 -33 -74 189 -190 281 -436&#xA;346 -206 55 -292 107 -398 242 l-20 25 -7 -69z m-3599 -947 l62 -11 13 -51&#xA;c15 -68 72 -212 121 -311 183 -366 489 -681 867 -891 351 -195 716 -307 1103&#xA;-338 l145 -12 47 -43 c26 -24 46 -45 44 -46 -9 -8 -380 14 -488 29 -459 60&#xA;-866 217 -1255 483 -322 219 -568 498 -732 827 -60 120 -94 205 -121 303 l-20&#xA;72 75 0 c42 0 105 -5 139 -11z m317 -79 c83 -28 157 -54 163 -58 5 -4 22 -41&#xA;38 -83 88 -246 335 -570 571 -750 271 -208 616 -357 930 -403 89 -13 102 -18&#xA;120 -42 11 -15 35 -47 53 -71 17 -24 32 -45 32 -47 0 -15 -327 34 -465 70&#xA;-288 74 -551 188 -782 337 -254 165 -484 396 -633 635 -108 176 -227 462 -191&#xA;462 6 0 80 -23 164 -50z m346 -147 c224 -125 398 -261 606 -475 202 -207 323&#xA;-288 572 -382 66 -25 79 -35 153 -118 44 -50 80 -96 80 -103 0 -25 -267 40&#xA;-434 107 -456 181 -801 484 -996 874 -33 67 -60 124 -60 128 0 11 12 6 79 -31z&#xA;m1015 -179 c19 -18 21 -45 4 -62 -25 -25 -78 -2 -78 33 0 18 27 45 45 45 7 0&#xA;21 -7 29 -16z m48 -111 c32 -29 16 -73 -27 -73 -43 0 -58 39 -28 72 20 22 31&#xA;23 55 1z m52 -106 c38 -27 -2 -95 -41 -71 -22 14 -29 50 -13 70 15 17 31 18&#xA;54 1z m64 -109 c34 -34 -6 -90 -48 -68 -11 6 -20 12 -20 15 0 2 -3 10 -6 18&#xA;-12 32 48 61 74 35z m63 -107 c21 -16 22 -22 11 -45 -19 -42 -82 -30 -82 15 0&#xA;18 25 49 40 49 4 0 18 -8 31 -19z m85 -107 c16 -24 16 -26 -4 -46 -18 -19 -25&#xA;-20 -47 -10 -16 8 -25 20 -25 35 0 50 49 63 76 21z m964 -24 c12 -22 0 -55&#xA;-22 -63 -39 -13 -74 37 -48 68 18 21 57 19 70 -5z m-889 -40 c21 -12 25 -50 7&#xA;-68 -19 -19 -56 -14 -68 8 -15 28 3 61 38 69 2 1 12 -4 23 -9z m797 -46 c37&#xA;-26 23 -74 -23 -74 -42 0 -59 44 -29 74 19 20 24 20 52 0z m-678 -44 c8 -14 8&#xA;-26 0 -40 -19 -35 -80 -20 -80 20 0 40 61 55 80 20z m590 -39 c18 -35 -18 -79&#xA;-54 -65 -22 8 -31 51 -16 69 18 21 57 19 70 -4z m-486 -7 c9 -8 16 -22 16 -29&#xA;0 -7 -7 -21 -16 -29 -8 -9 -22 -16 -29 -16 -38 0 -59 61 -27 79 24 15 38 13&#xA;56 -5z m105 -24 c25 -13 33 -37 21 -61 -12 -21 -50 -25 -68 -7 -18 18 -15 55&#xA;6 67 21 13 20 13 41 1z m255 -6 c22 -21 20 -51 -3 -64 -32 -16 -51 -12 -63 16&#xA;-11 23 -10 29 11 45 28 23 35 23 55 3z m-112 -29 c8 -19 8 -28 -2 -40 -25 -30&#xA;-80 -12 -80 25 0 44 63 55 82 15z m1328 -29 c0 -10 -128 -96 -224 -152 -169&#xA;-97 -438 -205 -548 -220 l-46 -6 -23 43 c-18 35 -69 173 -69 186 0 2 52 3 115&#xA;3 222 0 553 57 710 123 59 25 85 32 85 23z"/>
<path d="M3834 6066 c-34 -8 -81 -24 -105 -36 -60 -31 -141 -118 -176 -187&#xA;-25 -53 -28 -67 -28 -163 1 -130 23 -195 95 -273 197 -216 549 -163 672 99&#xA;140 300 -133 633 -458 560z m246 -107 c235 -125 226 -461 -15 -580 -54 -26&#xA;-76 -31 -139 -32 -65 0 -84 4 -140 32 -125 61 -191 167 -189 304 2 131 91 254&#xA;215 299 82 29 188 20 268 -23z"/>
</g>
</svg>